<svg width="157" height="67" viewBox="0 0 157 67" fill="none" xmlns="http://www.w3.org/2000/svg">
<path d="M16.396 1.088C16.516 0.895998 16.684 0.799998 16.9 0.799998H21.112C21.232 0.799998 21.328 0.847998 21.4 0.943999C21.496 1.016 21.544 1.112 21.544 1.232V25.568C21.544 25.688 21.496 25.796 21.4 25.892C21.328 25.964 21.232 26 21.112 26H16.9C16.78 26 16.672 25.964 16.576 25.892C16.504 25.796 16.468 25.688 16.468 25.568V9.692C16.468 9.596 16.444 9.548 16.396 9.548C16.348 9.548 16.3 9.584 16.252 9.656L12.436 15.632C12.316 15.824 12.148 15.92 11.932 15.92H9.808C9.592 15.92 9.424 15.824 9.304 15.632L5.488 9.656C5.44 9.584 5.392 9.56 5.344 9.584C5.296 9.584 5.272 9.632 5.272 9.728V25.568C5.272 25.688 5.224 25.796 5.128 25.892C5.056 25.964 4.96 26 4.84 26H0.628C0.508 26 0.4 25.964 0.304 25.892C0.232 25.796 0.196 25.688 0.196 25.568V1.232C0.196 1.112 0.232 1.016 0.304 0.943999C0.4 0.847998 0.508 0.799998 0.628 0.799998H4.84C5.056 0.799998 5.224 0.895998 5.344 1.088L10.744 9.476C10.816 9.62 10.888 9.62 10.96 9.476L16.396 1.088ZM43.4264 4.724C43.4264 4.844 43.3784 4.952 43.2824 5.048C43.2104 5.12 43.1144 5.156 42.9944 5.156H31.1864C31.0664 5.156 31.0064 5.216 31.0064 5.336V10.916C31.0064 11.036 31.0664 11.096 31.1864 11.096H38.9264C39.0464 11.096 39.1424 11.144 39.2144 11.24C39.3104 11.312 39.3584 11.408 39.3584 11.528V15.02C39.3584 15.14 39.3104 15.248 39.2144 15.344C39.1424 15.416 39.0464 15.452 38.9264 15.452H31.1864C31.0664 15.452 31.0064 15.512 31.0064 15.632V21.464C31.0064 21.584 31.0664 21.644 31.1864 21.644H42.9944C43.1144 21.644 43.2104 21.692 43.2824 21.788C43.3784 21.86 43.4264 21.956 43.4264 22.076V25.568C43.4264 25.688 43.3784 25.796 43.2824 25.892C43.2104 25.964 43.1144 26 42.9944 26H26.3624C26.2424 26 26.1344 25.964 26.0384 25.892C25.9664 25.796 25.9304 25.688 25.9304 25.568V1.232C25.9304 1.112 25.9664 1.016 26.0384 0.943999C26.1344 0.847998 26.2424 0.799998 26.3624 0.799998H42.9944C43.1144 0.799998 43.2104 0.847998 43.2824 0.943999C43.3784 1.016 43.4264 1.112 43.4264 1.232V4.724ZM63.1538 1.088C63.2738 0.895998 63.4418 0.799998 63.6578 0.799998H67.8698C67.9898 0.799998 68.0858 0.847998 68.1578 0.943999C68.2538 1.016 68.3018 1.112 68.3018 1.232V25.568C68.3018 25.688 68.2538 25.796 68.1578 25.892C68.0858 25.964 67.9898 26 67.8698 26H63.6578C63.5378 26 63.4298 25.964 63.3338 25.892C63.2618 25.796 63.2258 25.688 63.2258 25.568V9.692C63.2258 9.596 63.2018 9.548 63.1538 9.548C63.1058 9.548 63.0578 9.584 63.0098 9.656L59.1938 15.632C59.0738 15.824 58.9058 15.92 58.6898 15.92H56.5658C56.3498 15.92 56.1818 15.824 56.0618 15.632L52.2458 9.656C52.1978 9.584 52.1498 9.56 52.1018 9.584C52.0538 9.584 52.0298 9.632 52.0298 9.728V25.568C52.0298 25.688 51.9818 25.796 51.8858 25.892C51.8138 25.964 51.7178 26 51.5978 26H47.3858C47.2658 26 47.1578 25.964 47.0618 25.892C46.9898 25.796 46.9538 25.688 46.9538 25.568V1.232C46.9538 1.112 46.9898 1.016 47.0618 0.943999C47.1578 0.847998 47.2658 0.799998 47.3858 0.799998H51.5978C51.8138 0.799998 51.9818 0.895998 52.1018 1.088L57.5018 9.476C57.5738 9.62 57.6458 9.62 57.7178 9.476L63.1538 1.088ZM87.6282 12.86C87.4842 12.932 87.4842 13.004 87.6282 13.076C89.9082 14.252 91.0482 16.208 91.0482 18.944C91.0482 21.272 90.2562 23.036 88.6722 24.236C87.0882 25.412 85.0122 26 82.4442 26H73.1202C73.0002 26 72.8922 25.964 72.7962 25.892C72.7242 25.796 72.6882 25.688 72.6882 25.568V1.232C72.6882 1.112 72.7242 1.016 72.7962 0.943999C72.8922 0.847998 73.0002 0.799998 73.1202 0.799998H82.1562C87.8442 0.799998 90.6882 3.104 90.6882 7.712C90.6882 10.112 89.6682 11.828 87.6282 12.86ZM77.9442 5.156C77.8242 5.156 77.7642 5.216 77.7642 5.336V10.952C77.7642 11.072 77.8242 11.132 77.9442 11.132H82.1562C83.2842 11.132 84.1602 10.868 84.7842 10.34C85.4082 9.812 85.7202 9.092 85.7202 8.18C85.7202 7.244 85.4082 6.512 84.7842 5.984C84.1602 5.432 83.2842 5.156 82.1562 5.156H77.9442ZM82.4442 21.608C83.5482 21.608 84.4122 21.332 85.0362 20.78C85.6602 20.204 85.9722 19.424 85.9722 18.44C85.9722 17.456 85.6602 16.688 85.0362 16.136C84.4122 15.56 83.5362 15.272 82.4082 15.272H77.9442C77.8242 15.272 77.7642 15.332 77.7642 15.452V21.428C77.7642 21.548 77.8242 21.608 77.9442 21.608H82.4442ZM112.508 4.724C112.508 4.844 112.46 4.952 112.364 5.048C112.292 5.12 112.196 5.156 112.076 5.156H100.268C100.148 5.156 100.088 5.216 100.088 5.336V10.916C100.088 11.036 100.148 11.096 100.268 11.096H108.008C108.128 11.096 108.224 11.144 108.296 11.24C108.392 11.312 108.44 11.408 108.44 11.528V15.02C108.44 15.14 108.392 15.248 108.296 15.344C108.224 15.416 108.128 15.452 108.008 15.452H100.268C100.148 15.452 100.088 15.512 100.088 15.632V21.464C100.088 21.584 100.148 21.644 100.268 21.644H112.076C112.196 21.644 112.292 21.692 112.364 21.788C112.46 21.86 112.508 21.956 112.508 22.076V25.568C112.508 25.688 112.46 25.796 112.364 25.892C112.292 25.964 112.196 26 112.076 26H95.4444C95.3244 26 95.2164 25.964 95.1204 25.892C95.0484 25.796 95.0124 25.688 95.0124 25.568V1.232C95.0124 1.112 95.0484 1.016 95.1204 0.943999C95.2164 0.847998 95.3244 0.799998 95.4444 0.799998H112.076C112.196 0.799998 112.292 0.847998 112.364 0.943999C112.46 1.016 112.508 1.112 112.508 1.232V4.724ZM129.86 26C129.62 26 129.452 25.892 129.356 25.676L124.856 15.704C124.808 15.608 124.736 15.56 124.64 15.56H121.292C121.172 15.56 121.112 15.62 121.112 15.74V25.568C121.112 25.688 121.064 25.796 120.968 25.892C120.896 25.964 120.8 26 120.68 26H116.468C116.348 26 116.24 25.964 116.144 25.892C116.072 25.796 116.036 25.688 116.036 25.568V1.232C116.036 1.112 116.072 1.016 116.144 0.943999C116.24 0.847998 116.348 0.799998 116.468 0.799998H126.764C128.3 0.799998 129.644 1.112 130.796 1.736C131.972 2.36 132.872 3.248 133.496 4.4C134.144 5.552 134.468 6.884 134.468 8.396C134.468 10.028 134.06 11.432 133.244 12.608C132.428 13.76 131.288 14.576 129.824 15.056C129.704 15.104 129.668 15.188 129.716 15.308L134.612 25.496C134.66 25.592 134.684 25.664 134.684 25.712C134.684 25.904 134.552 26 134.288 26H129.86ZM121.292 5.156C121.172 5.156 121.112 5.216 121.112 5.336V11.492C121.112 11.612 121.172 11.672 121.292 11.672H126.008C127.016 11.672 127.832 11.372 128.456 10.772C129.104 10.172 129.428 9.392 129.428 8.432C129.428 7.472 129.104 6.692 128.456 6.092C127.832 5.468 127.016 5.156 126.008 5.156H121.292ZM146.789 26.288C144.869 26.288 143.189 25.988 141.749 25.388C140.309 24.764 139.193 23.888 138.401 22.76C137.633 21.608 137.249 20.276 137.249 18.764V17.972C137.249 17.852 137.285 17.756 137.357 17.684C137.453 17.588 137.561 17.54 137.681 17.54H141.785C141.905 17.54 142.001 17.588 142.073 17.684C142.169 17.756 142.217 17.852 142.217 17.972V18.512C142.217 19.472 142.661 20.288 143.549 20.96C144.437 21.608 145.637 21.932 147.149 21.932C148.421 21.932 149.369 21.668 149.993 21.14C150.617 20.588 150.929 19.916 150.929 19.124C150.929 18.548 150.737 18.068 150.353 17.684C149.969 17.276 149.441 16.928 148.769 16.64C148.121 16.328 147.077 15.908 145.637 15.38C144.029 14.828 142.661 14.264 141.533 13.688C140.429 13.112 139.493 12.332 138.725 11.348C137.981 10.34 137.609 9.104 137.609 7.64C137.609 6.2 137.981 4.94 138.725 3.86C139.469 2.78 140.501 1.952 141.821 1.376C143.141 0.8 144.665 0.512 146.393 0.512C148.217 0.512 149.837 0.835999 151.253 1.484C152.693 2.132 153.809 3.044 154.601 4.22C155.417 5.372 155.825 6.716 155.825 8.252V8.792C155.825 8.912 155.777 9.02 155.681 9.116C155.609 9.188 155.513 9.224 155.393 9.224H151.253C151.133 9.224 151.025 9.188 150.929 9.116C150.857 9.02 150.821 8.912 150.821 8.792V8.504C150.821 7.496 150.401 6.644 149.561 5.948C148.745 5.228 147.617 4.868 146.177 4.868C145.049 4.868 144.161 5.108 143.513 5.588C142.889 6.068 142.577 6.728 142.577 7.568C142.577 8.168 142.757 8.672 143.117 9.08C143.501 9.488 144.053 9.86 144.773 10.196C145.517 10.508 146.657 10.94 148.193 11.492C149.897 12.116 151.229 12.668 152.189 13.148C153.173 13.628 154.049 14.348 154.817 15.308C155.609 16.244 156.005 17.468 156.005 18.98C156.005 21.236 155.177 23.024 153.521 24.344C151.865 25.64 149.621 26.288 146.789 26.288ZM15.136 52.86C14.992 52.932 14.992 53.004 15.136 53.076C17.416 54.252 18.556 56.208 18.556 58.944C18.556 61.272 17.764 63.036 16.18 64.236C14.596 65.412 12.52 66 9.952 66H0.628C0.508 66 0.4 65.964 0.304 65.892C0.232 65.796 0.196 65.688 0.196 65.568V41.232C0.196 41.112 0.232 41.016 0.304 40.944C0.4 40.848 0.508 40.8 0.628 40.8H9.664C15.352 40.8 18.196 43.104 18.196 47.712C18.196 50.112 17.176 51.828 15.136 52.86ZM5.452 45.156C5.332 45.156 5.272 45.216 5.272 45.336V50.952C5.272 51.072 5.332 51.132 5.452 51.132H9.664C10.792 51.132 11.668 50.868 12.292 50.34C12.916 49.812 13.228 49.092 13.228 48.18C13.228 47.244 12.916 46.512 12.292 45.984C11.668 45.432 10.792 45.156 9.664 45.156H5.452ZM9.952 61.608C11.056 61.608 11.92 61.332 12.544 60.78C13.168 60.204 13.48 59.424 13.48 58.44C13.48 57.456 13.168 56.688 12.544 56.136C11.92 55.56 11.044 55.272 9.916 55.272H5.452C5.332 55.272 5.272 55.332 5.272 55.452V61.428C5.272 61.548 5.332 61.608 5.452 61.608H9.952ZM40.0162 44.724C40.0162 44.844 39.9682 44.952 39.8722 45.048C39.8002 45.12 39.7042 45.156 39.5842 45.156H27.7762C27.6562 45.156 27.5962 45.216 27.5962 45.336V50.916C27.5962 51.036 27.6562 51.096 27.7762 51.096H35.5162C35.6362 51.096 35.7322 51.144 35.8042 51.24C35.9002 51.312 35.9482 51.408 35.9482 51.528V55.02C35.9482 55.14 35.9002 55.248 35.8042 55.344C35.7322 55.416 35.6362 55.452 35.5162 55.452H27.7762C27.6562 55.452 27.5962 55.512 27.5962 55.632V61.464C27.5962 61.584 27.6562 61.644 27.7762 61.644H39.5842C39.7042 61.644 39.8002 61.692 39.8722 61.788C39.9682 61.86 40.0162 61.956 40.0162 62.076V65.568C40.0162 65.688 39.9682 65.796 39.8722 65.892C39.8002 65.964 39.7042 66 39.5842 66H22.9522C22.8322 66 22.7242 65.964 22.6282 65.892C22.5562 65.796 22.5202 65.688 22.5202 65.568V41.232C22.5202 41.112 22.5562 41.016 22.6282 40.944C22.7242 40.848 22.8322 40.8 22.9522 40.8H39.5842C39.7042 40.8 39.8002 40.848 39.8722 40.944C39.9682 41.016 40.0162 41.112 40.0162 41.232V44.724ZM58.0157 41.232C58.0157 41.112 58.0517 41.016 58.1237 40.944C58.2197 40.848 58.3277 40.8 58.4477 40.8H62.6597C62.7797 40.8 62.8757 40.848 62.9477 40.944C63.0437 41.016 63.0917 41.112 63.0917 41.232V65.568C63.0917 65.688 63.0437 65.796 62.9477 65.892C62.8757 65.964 62.7797 66 62.6597 66H58.5917C58.3517 66 58.1837 65.904 58.0877 65.712L48.7637 50.304C48.7157 50.232 48.6677 50.208 48.6197 50.232C48.5717 50.232 48.5477 50.28 48.5477 50.376L48.6197 65.568C48.6197 65.688 48.5717 65.796 48.4757 65.892C48.4037 65.964 48.3077 66 48.1877 66H43.9757C43.8557 66 43.7477 65.964 43.6517 65.892C43.5797 65.796 43.5437 65.688 43.5437 65.568V41.232C43.5437 41.112 43.5797 41.016 43.6517 40.944C43.7477 40.848 43.8557 40.8 43.9757 40.8H48.0437C48.2837 40.8 48.4517 40.896 48.5477 41.088L57.8357 56.424C57.8837 56.496 57.9317 56.532 57.9797 56.532C58.0277 56.508 58.0517 56.448 58.0517 56.352L58.0157 41.232ZM84.7701 44.724C84.7701 44.844 84.7221 44.952 84.6261 45.048C84.5541 45.12 84.4581 45.156 84.3381 45.156H72.5301C72.4101 45.156 72.3501 45.216 72.3501 45.336V50.916C72.3501 51.036 72.4101 51.096 72.5301 51.096H80.2701C80.3901 51.096 80.4861 51.144 80.5581 51.24C80.6541 51.312 80.7021 51.408 80.7021 51.528V55.02C80.7021 55.14 80.6541 55.248 80.5581 55.344C80.4861 55.416 80.3901 55.452 80.2701 55.452H72.5301C72.4101 55.452 72.3501 55.512 72.3501 55.632V61.464C72.3501 61.584 72.4101 61.644 72.5301 61.644H84.3381C84.4581 61.644 84.5541 61.692 84.6261 61.788C84.7221 61.86 84.7701 61.956 84.7701 62.076V65.568C84.7701 65.688 84.7221 65.796 84.6261 65.892C84.5541 65.964 84.4581 66 84.3381 66H67.7061C67.5861 66 67.4781 65.964 67.3821 65.892C67.3101 65.796 67.2741 65.688 67.2741 65.568V41.232C67.2741 41.112 67.3101 41.016 67.3821 40.944C67.4781 40.848 67.5861 40.8 67.7061 40.8H84.3381C84.4581 40.8 84.5541 40.848 84.6261 40.944C84.7221 41.016 84.7701 41.112 84.7701 41.232V44.724ZM105.758 44.724C105.758 44.844 105.71 44.952 105.614 45.048C105.542 45.12 105.446 45.156 105.326 45.156H93.5536C93.4336 45.156 93.3736 45.216 93.3736 45.336V50.916C93.3736 51.036 93.4336 51.096 93.5536 51.096H101.294C101.414 51.096 101.51 51.144 101.582 51.24C101.678 51.312 101.726 51.408 101.726 51.528V55.02C101.726 55.14 101.678 55.248 101.582 55.344C101.51 55.416 101.414 55.452 101.294 55.452H93.5536C93.4336 55.452 93.3736 55.512 93.3736 55.632V65.568C93.3736 65.688 93.3256 65.796 93.2296 65.892C93.1576 65.964 93.0616 66 92.9416 66H88.7296C88.6096 66 88.5016 65.964 88.4056 65.892C88.3336 65.796 88.2976 65.688 88.2976 65.568V41.232C88.2976 41.112 88.3336 41.016 88.4056 40.944C88.5016 40.848 88.6096 40.8 88.7296 40.8H105.326C105.446 40.8 105.542 40.848 105.614 40.944C105.71 41.016 105.758 41.112 105.758 41.232V44.724ZM108.874 66C108.754 66 108.646 65.964 108.55 65.892C108.478 65.796 108.442 65.688 108.442 65.568V41.232C108.442 41.112 108.478 41.016 108.55 40.944C108.646 40.848 108.754 40.8 108.874 40.8H113.086C113.206 40.8 113.302 40.848 113.374 40.944C113.47 41.016 113.518 41.112 113.518 41.232V65.568C113.518 65.688 113.47 65.796 113.374 65.892C113.302 65.964 113.206 66 113.086 66H108.874ZM135.287 40.8C135.407 40.8 135.503 40.848 135.575 40.944C135.671 41.016 135.719 41.112 135.719 41.232V44.76C135.719 44.88 135.671 44.988 135.575 45.084C135.503 45.156 135.407 45.192 135.287 45.192H128.843C128.723 45.192 128.663 45.252 128.663 45.372V65.568C128.663 65.688 128.615 65.796 128.519 65.892C128.447 65.964 128.351 66 128.231 66H124.019C123.899 66 123.791 65.964 123.695 65.892C123.623 65.796 123.587 65.688 123.587 65.568V45.372C123.587 45.252 123.527 45.192 123.407 45.192H117.143C117.023 45.192 116.915 45.156 116.819 45.084C116.747 44.988 116.711 44.88 116.711 44.76V41.232C116.711 41.112 116.747 41.016 116.819 40.944C116.915 40.848 117.023 40.8 117.143 40.8H135.287ZM147.387 66.288C145.467 66.288 143.787 65.988 142.347 65.388C140.907 64.764 139.791 63.888 138.999 62.76C138.231 61.608 137.847 60.276 137.847 58.764V57.972C137.847 57.852 137.883 57.756 137.955 57.684C138.051 57.588 138.159 57.54 138.279 57.54H142.383C142.503 57.54 142.599 57.588 142.671 57.684C142.767 57.756 142.815 57.852 142.815 57.972V58.512C142.815 59.472 143.259 60.288 144.147 60.96C145.035 61.608 146.235 61.932 147.747 61.932C149.019 61.932 149.967 61.668 150.591 61.14C151.215 60.588 151.527 59.916 151.527 59.124C151.527 58.548 151.335 58.068 150.951 57.684C150.567 57.276 150.039 56.928 149.367 56.64C148.719 56.328 147.675 55.908 146.235 55.38C144.627 54.828 143.259 54.264 142.131 53.688C141.027 53.112 140.091 52.332 139.323 51.348C138.579 50.34 138.207 49.104 138.207 47.64C138.207 46.2 138.579 44.94 139.323 43.86C140.067 42.78 141.099 41.952 142.419 41.376C143.739 40.8 145.263 40.512 146.991 40.512C148.815 40.512 150.435 40.836 151.851 41.484C153.291 42.132 154.407 43.044 155.199 44.22C156.015 45.372 156.423 46.716 156.423 48.252V48.792C156.423 48.912 156.375 49.02 156.279 49.116C156.207 49.188 156.111 49.224 155.991 49.224H151.851C151.731 49.224 151.623 49.188 151.527 49.116C151.455 49.02 151.419 48.912 151.419 48.792V48.504C151.419 47.496 150.999 46.644 150.159 45.948C149.343 45.228 148.215 44.868 146.775 44.868C145.647 44.868 144.759 45.108 144.111 45.588C143.487 46.068 143.175 46.728 143.175 47.568C143.175 48.168 143.355 48.672 143.715 49.08C144.099 49.488 144.651 49.86 145.371 50.196C146.115 50.508 147.255 50.94 148.791 51.492C150.495 52.116 151.827 52.668 152.787 53.148C153.771 53.628 154.647 54.348 155.415 55.308C156.207 56.244 156.603 57.468 156.603 58.98C156.603 61.236 155.775 63.024 154.119 64.344C152.463 65.64 150.219 66.288 147.387 66.288Z" fill="white"/>
</svg>
