<svg width="204" height="70" viewBox="0 0 204 70" fill="none" xmlns="http://www.w3.org/2000/svg">
<g clip-path="url(#clip0_17_98)">
<path d="M28.3333 16.6667C28.3333 15.7467 27.5883 15 26.6667 15C25.745 15 25 15.7467 25 16.6667V20C25 20.92 25.745 21.6667 26.6667 21.6667C27.5883 21.6667 28.3333 20.92 28.3333 20V16.6667ZM8.33333 20C8.33333 20.92 7.58833 21.6667 6.66667 21.6667C5.745 21.6667 5 20.92 5 20V16.6667C5 15.7467 5.745 15 6.66667 15C7.58833 15 8.33333 15.7467 8.33333 16.6667V20ZM30 28.3333V45H3.33333V28.3333H30ZM33.3333 18.3333H30V20C30 21.8383 28.505 23.3333 26.6667 23.3333C24.8283 23.3333 23.3333 21.8383 23.3333 20V18.3333H10V20C10 21.8383 8.505 23.3333 6.66667 23.3333C4.82833 23.3333 3.33333 21.8383 3.33333 20V18.3333H0V48.3333H33.3333V18.3333ZM13.9233 41.6667C11.7267 41.6667 10.27 40.3983 10.31 37.9917H12.385C12.4217 39.0583 12.8517 39.8367 13.8967 39.8367C14.5883 39.8367 15.2833 39.425 15.2833 38.505C15.2833 37.3383 14.475 37.2533 13.1167 37.2533V35.625C14.0717 35.7083 15.11 35.5717 15.11 34.6117C15.11 33.8533 14.495 33.5067 13.925 33.5067C12.9667 33.5067 12.6033 34.21 12.6217 35.1783H10.5283C10.615 32.8433 12.0317 31.6667 13.91 31.6667C15.5233 31.6667 17.1917 32.6883 17.1917 34.4C17.1917 35.2867 16.8017 35.975 16.1283 36.3117C17.0083 36.65 17.54 37.4467 17.54 38.4667C17.5383 40.4683 15.885 41.6667 13.9233 41.6667ZM23.0233 41.6667H20.8467V35.42H18.4917V33.7083C19.9867 33.7483 21.0333 33.32 21.2533 31.8533H23.0233V41.6667V41.6667ZM40 23.3333V55H3.33333V51.6667H36.6667V23.3333H40Z" fill="white"/>
</g>
<path d="M68.388 29.428C68.34 29.476 68.328 29.524 68.352 29.572C68.376 29.62 68.424 29.644 68.496 29.644H78.252C78.372 29.644 78.468 29.692 78.54 29.788C78.636 29.86 78.684 29.956 78.684 30.076V33.568C78.684 33.688 78.636 33.796 78.54 33.892C78.468 33.964 78.372 34 78.252 34H62.052C61.932 34 61.824 33.964 61.728 33.892C61.656 33.796 61.62 33.688 61.62 33.568V30.256C61.62 30.04 61.692 29.86 61.836 29.716C63.012 28.564 64.212 27.316 65.436 25.972C66.66 24.604 67.428 23.752 67.74 23.416C68.412 22.624 69.096 21.868 69.792 21.148C71.976 18.724 73.068 16.924 73.068 15.748C73.068 14.908 72.768 14.224 72.168 13.696C71.568 13.144 70.788 12.868 69.828 12.868C68.868 12.868 68.088 13.144 67.488 13.696C66.888 14.224 66.588 14.932 66.588 15.82V16.72C66.588 16.84 66.54 16.948 66.444 17.044C66.372 17.116 66.276 17.152 66.156 17.152H61.908C61.788 17.152 61.68 17.116 61.584 17.044C61.512 16.948 61.476 16.84 61.476 16.72V15.028C61.548 13.732 61.956 12.592 62.7 11.608C63.444 10.6 64.428 9.832 65.652 9.304C66.9 8.776 68.292 8.512 69.828 8.512C71.532 8.512 73.008 8.836 74.256 9.484C75.528 10.108 76.5 10.96 77.172 12.04C77.868 13.12 78.216 14.32 78.216 15.64C78.216 16.648 77.964 17.68 77.46 18.736C76.956 19.792 76.2 20.932 75.192 22.156C74.448 23.092 73.644 24.016 72.78 24.928C71.916 25.84 70.632 27.16 68.928 28.888L68.388 29.428ZM95.1276 34C94.8636 34 94.6956 33.88 94.6236 33.64L88.2516 9.268L88.2156 9.124C88.2156 8.908 88.3476 8.8 88.6116 8.8H93.0756C93.3156 8.8 93.4716 8.92 93.5436 9.16L96.9636 23.812C96.9876 23.908 97.0236 23.956 97.0716 23.956C97.1196 23.956 97.1556 23.908 97.1796 23.812L100.492 9.196C100.564 8.932 100.72 8.8 100.96 8.8H105.316C105.58 8.8 105.748 8.92 105.82 9.16L109.42 23.812C109.444 23.884 109.48 23.932 109.528 23.956C109.576 23.956 109.612 23.908 109.636 23.812L112.948 9.196C113.02 8.932 113.176 8.8 113.416 8.8H117.664C118 8.8 118.132 8.956 118.06 9.268L112.156 33.64C112.084 33.88 111.916 34 111.652 34H107.368C107.128 34 106.972 33.88 106.9 33.64L103.228 18.052C103.204 17.956 103.168 17.908 103.12 17.908C103.072 17.908 103.036 17.956 103.012 18.052L99.5916 33.604C99.5436 33.868 99.3876 34 99.1236 34H95.1276ZM138.403 12.724C138.403 12.844 138.355 12.952 138.259 13.048C138.187 13.12 138.091 13.156 137.971 13.156H126.163C126.043 13.156 125.983 13.216 125.983 13.336V18.916C125.983 19.036 126.043 19.096 126.163 19.096H133.903C134.023 19.096 134.119 19.144 134.191 19.24C134.287 19.312 134.335 19.408 134.335 19.528V23.02C134.335 23.14 134.287 23.248 134.191 23.344C134.119 23.416 134.023 23.452 133.903 23.452H126.163C126.043 23.452 125.983 23.512 125.983 23.632V29.464C125.983 29.584 126.043 29.644 126.163 29.644H137.971C138.091 29.644 138.187 29.692 138.259 29.788C138.355 29.86 138.403 29.956 138.403 30.076V33.568C138.403 33.688 138.355 33.796 138.259 33.892C138.187 33.964 138.091 34 137.971 34H121.339C121.219 34 121.111 33.964 121.015 33.892C120.943 33.796 120.907 33.688 120.907 33.568V9.232C120.907 9.112 120.943 9.016 121.015 8.944C121.111 8.848 121.219 8.8 121.339 8.8H137.971C138.091 8.8 138.187 8.848 138.259 8.944C138.355 9.016 138.403 9.112 138.403 9.232V12.724ZM159.426 12.724C159.426 12.844 159.378 12.952 159.282 13.048C159.21 13.12 159.114 13.156 158.994 13.156H147.186C147.066 13.156 147.006 13.216 147.006 13.336V18.916C147.006 19.036 147.066 19.096 147.186 19.096H154.926C155.046 19.096 155.142 19.144 155.214 19.24C155.31 19.312 155.358 19.408 155.358 19.528V23.02C155.358 23.14 155.31 23.248 155.214 23.344C155.142 23.416 155.046 23.452 154.926 23.452H147.186C147.066 23.452 147.006 23.512 147.006 23.632V29.464C147.006 29.584 147.066 29.644 147.186 29.644H158.994C159.114 29.644 159.21 29.692 159.282 29.788C159.378 29.86 159.426 29.956 159.426 30.076V33.568C159.426 33.688 159.378 33.796 159.282 33.892C159.21 33.964 159.114 34 158.994 34H142.362C142.242 34 142.134 33.964 142.038 33.892C141.966 33.796 141.93 33.688 141.93 33.568V9.232C141.93 9.112 141.966 9.016 142.038 8.944C142.134 8.848 142.242 8.8 142.362 8.8H158.994C159.114 8.8 159.21 8.848 159.282 8.944C159.378 9.016 159.426 9.112 159.426 9.232V12.724ZM163.386 34C163.266 34 163.158 33.964 163.062 33.892C162.99 33.796 162.954 33.688 162.954 33.568V9.232C162.954 9.112 162.99 9.016 163.062 8.944C163.158 8.848 163.266 8.8 163.386 8.8H167.598C167.718 8.8 167.814 8.848 167.886 8.944C167.982 9.016 168.03 9.112 168.03 9.232V19.312C168.03 19.384 168.054 19.432 168.102 19.456C168.15 19.456 168.198 19.432 168.246 19.384L176.562 9.052C176.706 8.884 176.886 8.8 177.102 8.8H181.854C182.046 8.8 182.166 8.86 182.214 8.98C182.262 9.076 182.238 9.196 182.142 9.34L174.114 19.6C174.042 19.696 174.03 19.78 174.078 19.852L182.574 33.496C182.622 33.64 182.646 33.724 182.646 33.748C182.646 33.916 182.526 34 182.286 34H177.534C177.294 34 177.126 33.904 177.03 33.712L170.622 23.344C170.598 23.296 170.562 23.272 170.514 23.272C170.466 23.272 170.418 23.296 170.37 23.344L168.102 26.188C168.054 26.284 168.03 26.356 168.03 26.404V33.568C168.03 33.688 167.982 33.796 167.886 33.892C167.814 33.964 167.718 34 167.598 34H163.386ZM193.32 34.288C191.4 34.288 189.72 33.988 188.28 33.388C186.84 32.764 185.724 31.888 184.932 30.76C184.164 29.608 183.78 28.276 183.78 26.764V25.972C183.78 25.852 183.816 25.756 183.888 25.684C183.984 25.588 184.092 25.54 184.212 25.54H188.316C188.436 25.54 188.532 25.588 188.604 25.684C188.7 25.756 188.748 25.852 188.748 25.972V26.512C188.748 27.472 189.192 28.288 190.08 28.96C190.968 29.608 192.168 29.932 193.68 29.932C194.952 29.932 195.9 29.668 196.524 29.14C197.148 28.588 197.46 27.916 197.46 27.124C197.46 26.548 197.268 26.068 196.884 25.684C196.5 25.276 195.972 24.928 195.3 24.64C194.652 24.328 193.608 23.908 192.168 23.38C190.56 22.828 189.192 22.264 188.064 21.688C186.96 21.112 186.024 20.332 185.256 19.348C184.512 18.34 184.14 17.104 184.14 15.64C184.14 14.2 184.512 12.94 185.256 11.86C186 10.78 187.032 9.952 188.352 9.376C189.672 8.8 191.196 8.512 192.924 8.512C194.748 8.512 196.368 8.836 197.784 9.484C199.224 10.132 200.34 11.044 201.132 12.22C201.948 13.372 202.356 14.716 202.356 16.252V16.792C202.356 16.912 202.308 17.02 202.212 17.116C202.14 17.188 202.044 17.224 201.924 17.224H197.784C197.664 17.224 197.556 17.188 197.46 17.116C197.388 17.02 197.352 16.912 197.352 16.792V16.504C197.352 15.496 196.932 14.644 196.092 13.948C195.276 13.228 194.148 12.868 192.708 12.868C191.58 12.868 190.692 13.108 190.044 13.588C189.42 14.068 189.108 14.728 189.108 15.568C189.108 16.168 189.288 16.672 189.648 17.08C190.032 17.488 190.584 17.86 191.304 18.196C192.048 18.508 193.188 18.94 194.724 19.492C196.428 20.116 197.76 20.668 198.72 21.148C199.704 21.628 200.58 22.348 201.348 23.308C202.14 24.244 202.536 25.468 202.536 26.98C202.536 29.236 201.708 31.024 200.052 32.344C198.396 33.64 196.152 34.288 193.32 34.288Z" fill="white"/>
<path d="M61.752 65C61.672 65 61.6 64.976 61.536 64.928C61.488 64.864 61.464 64.792 61.464 64.712V48.488C61.464 48.408 61.488 48.344 61.536 48.296C61.6 48.232 61.672 48.2 61.752 48.2H64.56C64.64 48.2 64.704 48.232 64.752 48.296C64.816 48.344 64.848 48.408 64.848 48.488V64.712C64.848 64.792 64.816 64.864 64.752 64.928C64.704 64.976 64.64 65 64.56 65H61.752ZM77.4167 48.488C77.4167 48.408 77.4407 48.344 77.4887 48.296C77.5527 48.232 77.6247 48.2 77.7047 48.2H80.5127C80.5927 48.2 80.6567 48.232 80.7047 48.296C80.7687 48.344 80.8007 48.408 80.8007 48.488V64.712C80.8007 64.792 80.7687 64.864 80.7047 64.928C80.6567 64.976 80.5927 65 80.5127 65H77.8007C77.6407 65 77.5287 64.936 77.4647 64.808L71.2487 54.536C71.2167 54.488 71.1847 54.472 71.1527 54.488C71.1207 54.488 71.1047 54.52 71.1047 54.584L71.1527 64.712C71.1527 64.792 71.1207 64.864 71.0567 64.928C71.0087 64.976 70.9447 65 70.8647 65H68.0567C67.9767 65 67.9047 64.976 67.8407 64.928C67.7927 64.864 67.7687 64.792 67.7687 64.712V48.488C67.7687 48.408 67.7927 48.344 67.8407 48.296C67.9047 48.232 67.9767 48.2 68.0567 48.2H70.7687C70.9287 48.2 71.0407 48.264 71.1047 48.392L77.2967 58.616C77.3287 58.664 77.3607 58.688 77.3927 58.688C77.4247 58.672 77.4407 58.632 77.4407 58.568L77.4167 48.488ZM95.3216 48.2C95.4016 48.2 95.4656 48.232 95.5136 48.296C95.5776 48.344 95.6096 48.408 95.6096 48.488V50.84C95.6096 50.92 95.5776 50.992 95.5136 51.056C95.4656 51.104 95.4016 51.128 95.3216 51.128H91.0256C90.9456 51.128 90.9056 51.168 90.9056 51.248V64.712C90.9056 64.792 90.8736 64.864 90.8096 64.928C90.7616 64.976 90.6976 65 90.6176 65H87.8096C87.7296 65 87.6576 64.976 87.5936 64.928C87.5456 64.864 87.5216 64.792 87.5216 64.712V51.248C87.5216 51.168 87.4816 51.128 87.4016 51.128H83.2256C83.1456 51.128 83.0736 51.104 83.0096 51.056C82.9616 50.992 82.9376 50.92 82.9376 50.84V48.488C82.9376 48.408 82.9616 48.344 83.0096 48.296C83.0736 48.232 83.1456 48.2 83.2256 48.2H95.3216ZM109.433 50.816C109.433 50.896 109.401 50.968 109.337 51.032C109.289 51.08 109.225 51.104 109.145 51.104H101.273C101.193 51.104 101.153 51.144 101.153 51.224V54.944C101.153 55.024 101.193 55.064 101.273 55.064H106.433C106.513 55.064 106.577 55.096 106.625 55.16C106.689 55.208 106.721 55.272 106.721 55.352V57.68C106.721 57.76 106.689 57.832 106.625 57.896C106.577 57.944 106.513 57.968 106.433 57.968H101.273C101.193 57.968 101.153 58.008 101.153 58.088V61.976C101.153 62.056 101.193 62.096 101.273 62.096H109.145C109.225 62.096 109.289 62.128 109.337 62.192C109.401 62.24 109.433 62.304 109.433 62.384V64.712C109.433 64.792 109.401 64.864 109.337 64.928C109.289 64.976 109.225 65 109.145 65H98.0567C97.9767 65 97.9047 64.976 97.8407 64.928C97.7927 64.864 97.7687 64.792 97.7687 64.712V48.488C97.7687 48.408 97.7927 48.344 97.8407 48.296C97.9047 48.232 97.9767 48.2 98.0567 48.2H109.145C109.225 48.2 109.289 48.232 109.337 48.296C109.401 48.344 109.433 48.408 109.433 48.488V50.816ZM121 65C120.84 65 120.728 64.928 120.664 64.784L117.664 58.136C117.632 58.072 117.584 58.04 117.52 58.04H115.288C115.208 58.04 115.168 58.08 115.168 58.16V64.712C115.168 64.792 115.136 64.864 115.072 64.928C115.024 64.976 114.96 65 114.88 65H112.072C111.992 65 111.92 64.976 111.856 64.928C111.808 64.864 111.784 64.792 111.784 64.712V48.488C111.784 48.408 111.808 48.344 111.856 48.296C111.92 48.232 111.992 48.2 112.072 48.2H118.936C119.96 48.2 120.856 48.408 121.624 48.824C122.408 49.24 123.008 49.832 123.424 50.6C123.856 51.368 124.072 52.256 124.072 53.264C124.072 54.352 123.8 55.288 123.256 56.072C122.712 56.84 121.952 57.384 120.976 57.704C120.896 57.736 120.872 57.792 120.904 57.872L124.168 64.664C124.2 64.728 124.216 64.776 124.216 64.808C124.216 64.936 124.128 65 123.952 65H121ZM115.288 51.104C115.208 51.104 115.168 51.144 115.168 51.224V55.328C115.168 55.408 115.208 55.448 115.288 55.448H118.432C119.104 55.448 119.648 55.248 120.064 54.848C120.496 54.448 120.712 53.928 120.712 53.288C120.712 52.648 120.496 52.128 120.064 51.728C119.648 51.312 119.104 51.104 118.432 51.104H115.288ZM136.175 48.488C136.175 48.408 136.199 48.344 136.247 48.296C136.311 48.232 136.383 48.2 136.463 48.2H139.271C139.351 48.2 139.415 48.232 139.463 48.296C139.527 48.344 139.559 48.408 139.559 48.488V64.712C139.559 64.792 139.527 64.864 139.463 64.928C139.415 64.976 139.351 65 139.271 65H136.559C136.399 65 136.287 64.936 136.223 64.808L130.007 54.536C129.975 54.488 129.943 54.472 129.911 54.488C129.879 54.488 129.863 54.52 129.863 54.584L129.911 64.712C129.911 64.792 129.879 64.864 129.815 64.928C129.767 64.976 129.703 65 129.623 65H126.815C126.735 65 126.663 64.976 126.599 64.928C126.551 64.864 126.527 64.792 126.527 64.712V48.488C126.527 48.408 126.551 48.344 126.599 48.296C126.663 48.232 126.735 48.2 126.815 48.2H129.527C129.687 48.2 129.799 48.264 129.863 48.392L136.055 58.616C136.087 58.664 136.119 58.688 136.151 58.688C136.183 58.672 136.199 58.632 136.199 58.568L136.175 48.488ZM148.247 65.192C146.967 65.192 145.847 64.992 144.887 64.592C143.927 64.176 143.183 63.592 142.655 62.84C142.143 62.072 141.887 61.184 141.887 60.176V59.648C141.887 59.568 141.911 59.504 141.959 59.456C142.023 59.392 142.095 59.36 142.175 59.36H144.911C144.991 59.36 145.055 59.392 145.103 59.456C145.167 59.504 145.199 59.568 145.199 59.648V60.008C145.199 60.648 145.495 61.192 146.087 61.64C146.679 62.072 147.479 62.288 148.487 62.288C149.335 62.288 149.967 62.112 150.383 61.76C150.799 61.392 151.007 60.944 151.007 60.416C151.007 60.032 150.879 59.712 150.623 59.456C150.367 59.184 150.015 58.952 149.567 58.76C149.135 58.552 148.439 58.272 147.479 57.92C146.407 57.552 145.495 57.176 144.743 56.792C144.007 56.408 143.383 55.888 142.871 55.232C142.375 54.56 142.127 53.736 142.127 52.76C142.127 51.8 142.375 50.96 142.871 50.24C143.367 49.52 144.055 48.968 144.935 48.584C145.815 48.2 146.831 48.008 147.983 48.008C149.199 48.008 150.279 48.224 151.223 48.656C152.183 49.088 152.927 49.696 153.455 50.48C153.999 51.248 154.271 52.144 154.271 53.168V53.528C154.271 53.608 154.239 53.68 154.175 53.744C154.127 53.792 154.063 53.816 153.983 53.816H151.223C151.143 53.816 151.071 53.792 151.007 53.744C150.959 53.68 150.935 53.608 150.935 53.528V53.336C150.935 52.664 150.655 52.096 150.095 51.632C149.551 51.152 148.799 50.912 147.839 50.912C147.087 50.912 146.495 51.072 146.063 51.392C145.647 51.712 145.439 52.152 145.439 52.712C145.439 53.112 145.559 53.448 145.799 53.72C146.055 53.992 146.423 54.24 146.903 54.464C147.399 54.672 148.159 54.96 149.183 55.328C150.319 55.744 151.207 56.112 151.847 56.432C152.503 56.752 153.087 57.232 153.599 57.872C154.127 58.496 154.391 59.312 154.391 60.32C154.391 61.824 153.839 63.016 152.735 63.896C151.631 64.76 150.135 65.192 148.247 65.192ZM165.689 48.488C165.689 48.408 165.713 48.344 165.761 48.296C165.825 48.232 165.897 48.2 165.977 48.2H168.785C168.865 48.2 168.929 48.232 168.977 48.296C169.041 48.344 169.073 48.408 169.073 48.488V64.712C169.073 64.792 169.041 64.864 168.977 64.928C168.929 64.976 168.865 65 168.785 65H165.977C165.897 65 165.825 64.976 165.761 64.928C165.713 64.864 165.689 64.792 165.689 64.712V58.088C165.689 58.008 165.649 57.968 165.569 57.968H160.265C160.185 57.968 160.145 58.008 160.145 58.088V64.712C160.145 64.792 160.113 64.864 160.049 64.928C160.001 64.976 159.937 65 159.857 65H157.049C156.969 65 156.897 64.976 156.833 64.928C156.785 64.864 156.761 64.792 156.761 64.712V48.488C156.761 48.408 156.785 48.344 156.833 48.296C156.897 48.232 156.969 48.2 157.049 48.2H159.857C159.937 48.2 160.001 48.232 160.049 48.296C160.113 48.344 160.145 48.408 160.145 48.488V54.944C160.145 55.024 160.185 55.064 160.265 55.064H165.569C165.649 55.064 165.689 55.024 165.689 54.944V48.488ZM172.119 65C172.039 65 171.967 64.976 171.903 64.928C171.855 64.864 171.831 64.792 171.831 64.712V48.488C171.831 48.408 171.855 48.344 171.903 48.296C171.967 48.232 172.039 48.2 172.119 48.2H174.927C175.007 48.2 175.071 48.232 175.119 48.296C175.183 48.344 175.215 48.408 175.215 48.488V64.712C175.215 64.792 175.183 64.864 175.119 64.928C175.071 64.976 175.007 65 174.927 65H172.119ZM185.072 48.176C186.128 48.176 187.056 48.392 187.856 48.824C188.656 49.256 189.272 49.872 189.704 50.672C190.152 51.456 190.376 52.36 190.376 53.384C190.376 54.392 190.144 55.28 189.68 56.048C189.232 56.816 188.592 57.416 187.76 57.848C186.944 58.264 186 58.472 184.928 58.472H181.52C181.44 58.472 181.4 58.512 181.4 58.592V64.712C181.4 64.792 181.368 64.864 181.304 64.928C181.256 64.976 181.192 65 181.112 65H178.304C178.224 65 178.152 64.976 178.088 64.928C178.04 64.864 178.016 64.792 178.016 64.712V48.464C178.016 48.384 178.04 48.32 178.088 48.272C178.152 48.208 178.224 48.176 178.304 48.176H185.072ZM184.568 55.76C185.304 55.76 185.896 55.552 186.344 55.136C186.792 54.704 187.016 54.144 187.016 53.456C187.016 52.752 186.792 52.184 186.344 51.752C185.896 51.32 185.304 51.104 184.568 51.104H181.52C181.44 51.104 181.4 51.144 181.4 51.224V55.64C181.4 55.72 181.44 55.76 181.52 55.76H184.568Z" fill="white"/>
<defs>
<clipPath id="clip0_17_98">
<rect width="40" height="40" fill="white" transform="translate(0 15)"/>
</clipPath>
</defs>
</svg>
