<svg width="190" height="70" viewBox="0 0 190 70" fill="none" xmlns="http://www.w3.org/2000/svg">
<g clip-path="url(#clip0_17_99)">
<path fill-rule="evenodd" clip-rule="evenodd" d="M34.3733 52.4567L31.6667 51.0083L28.9583 52.4567L29.4983 49.435L27.285 47.3067L30.3267 46.8867L31.6667 44.1233L33.0067 46.8867L36.0483 47.3067L33.8333 49.435L34.3733 52.4567ZM22.7067 52.4567L20 51.0083L17.2917 52.4567L17.8333 49.435L15.6183 47.3067L18.66 46.8867L20 44.1233L21.34 46.8867L24.3817 47.3067L22.1667 49.435L22.7067 52.4567V52.4567ZM11.04 52.4567L8.33333 51.0083L5.625 52.4567L6.16667 49.435L3.95167 47.3067L6.99333 46.8867L8.33333 44.1233L9.67333 46.8867L12.715 47.3067L10.5 49.435L11.04 52.4567V52.4567ZM38.3333 41.6233H1.66667C0.746667 41.6233 0 42.3683 0 43.29V53.29C0 54.2117 0.746667 54.9567 1.66667 54.9567H38.3333C39.255 54.9567 40 54.2117 40 53.29V43.29C40 42.3683 39.255 41.6233 38.3333 41.6233ZM0.00333333 39.9567H8.33333C8.34667 37.9333 8.33167 36.1417 8.33333 34.935C8.34167 28.28 11.2483 29.7417 11.2483 23.83C11.2483 21.3183 9.61 19.9567 7.50167 19.9567C4.38667 19.9567 2.22 22.935 5.17 28.505C6.13833 30.3367 4.13667 30.77 1.98667 31.2667C0.123333 31.6967 0 33.0117 0 34.5883L0.00333333 39.9567V39.9567ZM38.0133 31.2667C35.8633 30.77 33.8617 30.3367 34.83 28.505C37.78 22.935 35.6133 19.9567 32.4983 19.9567C30.39 19.9567 28.7517 21.3183 28.7517 23.83C28.7517 29.37 31.6167 28.3367 31.6667 34.9567C31.68 36.5767 31.6517 37.1417 31.6667 39.9567H39.9967L40 34.5883C40 33.0117 39.8767 31.6967 38.0133 31.2667V31.2667ZM29.995 39.9567H10.0033L10 34.7467C10 32.65 10.1667 30.61 12.6467 30.0367C15.4533 29.3883 18.22 28.81 16.8883 26.355C12.945 19.0817 15.765 14.9567 19.9983 14.9567C24.15 14.9567 27.0417 18.9283 23.1083 26.355C21.8167 28.795 24.485 29.375 27.35 30.0367C29.8333 30.61 29.9983 32.6517 29.9983 34.7517L29.995 39.9567Z" fill="white"/>
</g>
<path d="M68.388 29.428C68.34 29.476 68.328 29.524 68.352 29.572C68.376 29.62 68.424 29.644 68.496 29.644H78.252C78.372 29.644 78.468 29.692 78.54 29.788C78.636 29.86 78.684 29.956 78.684 30.076V33.568C78.684 33.688 78.636 33.796 78.54 33.892C78.468 33.964 78.372 34 78.252 34H62.052C61.932 34 61.824 33.964 61.728 33.892C61.656 33.796 61.62 33.688 61.62 33.568V30.256C61.62 30.04 61.692 29.86 61.836 29.716C63.012 28.564 64.212 27.316 65.436 25.972C66.66 24.604 67.428 23.752 67.74 23.416C68.412 22.624 69.096 21.868 69.792 21.148C71.976 18.724 73.068 16.924 73.068 15.748C73.068 14.908 72.768 14.224 72.168 13.696C71.568 13.144 70.788 12.868 69.828 12.868C68.868 12.868 68.088 13.144 67.488 13.696C66.888 14.224 66.588 14.932 66.588 15.82V16.72C66.588 16.84 66.54 16.948 66.444 17.044C66.372 17.116 66.276 17.152 66.156 17.152H61.908C61.788 17.152 61.68 17.116 61.584 17.044C61.512 16.948 61.476 16.84 61.476 16.72V15.028C61.548 13.732 61.956 12.592 62.7 11.608C63.444 10.6 64.428 9.832 65.652 9.304C66.9 8.776 68.292 8.512 69.828 8.512C71.532 8.512 73.008 8.836 74.256 9.484C75.528 10.108 76.5 10.96 77.172 12.04C77.868 13.12 78.216 14.32 78.216 15.64C78.216 16.648 77.964 17.68 77.46 18.736C76.956 19.792 76.2 20.932 75.192 22.156C74.448 23.092 73.644 24.016 72.78 24.928C71.916 25.84 70.632 27.16 68.928 28.888L68.388 29.428ZM99.8005 23.02C99.9205 23.02 100.017 23.068 100.089 23.164C100.185 23.236 100.233 23.332 100.233 23.452V27.088C100.233 27.208 100.185 27.316 100.089 27.412C100.017 27.484 99.9205 27.52 99.8005 27.52H98.2525C98.1325 27.52 98.0725 27.58 98.0725 27.7V33.568C98.0725 33.688 98.0245 33.796 97.9285 33.892C97.8565 33.964 97.7605 34 97.6405 34H93.4285C93.3085 34 93.2005 33.964 93.1045 33.892C93.0325 33.796 92.9965 33.688 92.9965 33.568V27.7C92.9965 27.58 92.9365 27.52 92.8165 27.52H81.7645C81.6445 27.52 81.5365 27.484 81.4405 27.412C81.3685 27.316 81.3325 27.208 81.3325 27.088V24.208C81.3325 24.064 81.3685 23.884 81.4405 23.668L87.9205 9.124C88.0165 8.908 88.1845 8.8 88.4245 8.8H92.9245C93.0925 8.8 93.2005 8.848 93.2485 8.944C93.3205 9.016 93.3205 9.136 93.2485 9.304L87.2365 22.804C87.2125 22.852 87.2125 22.9 87.2365 22.948C87.2605 22.996 87.2965 23.02 87.3445 23.02H92.8165C92.9365 23.02 92.9965 22.96 92.9965 22.84V18.376C92.9965 18.256 93.0325 18.16 93.1045 18.088C93.2005 17.992 93.3085 17.944 93.4285 17.944H97.6405C97.7605 17.944 97.8565 17.992 97.9285 18.088C98.0245 18.16 98.0725 18.256 98.0725 18.376V22.84C98.0725 22.96 98.1325 23.02 98.2525 23.02H99.8005ZM103.165 34C102.805 34 102.685 33.832 102.805 33.496L112.057 9.124C112.129 8.908 112.297 8.8 112.561 8.8H116.737C117.097 8.8 117.217 8.968 117.097 9.304L107.845 33.676C107.773 33.892 107.605 34 107.341 34H103.165ZM123.421 34C123.061 34 122.941 33.832 123.061 33.496L130.873 13.372C130.921 13.228 130.873 13.156 130.729 13.156H123.997C123.877 13.156 123.817 13.216 123.817 13.336V14.992C123.817 15.112 123.769 15.22 123.673 15.316C123.601 15.388 123.505 15.424 123.385 15.424H120.109C119.989 15.424 119.881 15.388 119.785 15.316C119.713 15.22 119.677 15.112 119.677 14.992L119.713 9.232C119.713 9.112 119.749 9.016 119.821 8.944C119.917 8.848 120.025 8.8 120.145 8.8H135.877C135.997 8.8 136.093 8.848 136.165 8.944C136.261 9.016 136.309 9.112 136.309 9.232V12.868C136.309 13.012 136.273 13.192 136.201 13.408L128.425 33.676C128.353 33.892 128.185 34 127.921 34H123.421Z" fill="white"/>
<path d="M72.264 48.392C72.344 48.264 72.456 48.2 72.6 48.2H75.408C75.488 48.2 75.552 48.232 75.6 48.296C75.664 48.344 75.696 48.408 75.696 48.488V64.712C75.696 64.792 75.664 64.864 75.6 64.928C75.552 64.976 75.488 65 75.408 65H72.6C72.52 65 72.448 64.976 72.384 64.928C72.336 64.864 72.312 64.792 72.312 64.712V54.128C72.312 54.064 72.296 54.032 72.264 54.032C72.232 54.032 72.2 54.056 72.168 54.104L69.624 58.088C69.544 58.216 69.432 58.28 69.288 58.28H67.872C67.728 58.28 67.616 58.216 67.536 58.088L64.992 54.104C64.96 54.056 64.928 54.04 64.896 54.056C64.864 54.056 64.848 54.088 64.848 54.152V64.712C64.848 64.792 64.816 64.864 64.752 64.928C64.704 64.976 64.64 65 64.56 65H61.752C61.672 65 61.6 64.976 61.536 64.928C61.488 64.864 61.464 64.792 61.464 64.712V48.488C61.464 48.408 61.488 48.344 61.536 48.296C61.6 48.232 61.672 48.2 61.752 48.2H64.56C64.704 48.2 64.816 48.264 64.896 48.392L68.496 53.984C68.544 54.08 68.592 54.08 68.64 53.984L72.264 48.392ZM90.2843 50.816C90.2843 50.896 90.2523 50.968 90.1883 51.032C90.1403 51.08 90.0763 51.104 89.9963 51.104H82.1243C82.0443 51.104 82.0043 51.144 82.0043 51.224V54.944C82.0043 55.024 82.0443 55.064 82.1243 55.064H87.2843C87.3643 55.064 87.4283 55.096 87.4763 55.16C87.5403 55.208 87.5723 55.272 87.5723 55.352V57.68C87.5723 57.76 87.5403 57.832 87.4763 57.896C87.4283 57.944 87.3643 57.968 87.2843 57.968H82.1243C82.0443 57.968 82.0043 58.008 82.0043 58.088V61.976C82.0043 62.056 82.0443 62.096 82.1243 62.096H89.9963C90.0763 62.096 90.1403 62.128 90.1883 62.192C90.2523 62.24 90.2843 62.304 90.2843 62.384V64.712C90.2843 64.792 90.2523 64.864 90.1883 64.928C90.1403 64.976 90.0763 65 89.9963 65H78.9083C78.8283 65 78.7563 64.976 78.6923 64.928C78.6443 64.864 78.6203 64.792 78.6203 64.712V48.488C78.6203 48.408 78.6443 48.344 78.6923 48.296C78.7563 48.232 78.8283 48.2 78.9083 48.2H89.9963C90.0763 48.2 90.1403 48.232 90.1883 48.296C90.2523 48.344 90.2843 48.408 90.2843 48.488V50.816ZM102.284 48.488C102.284 48.408 102.308 48.344 102.356 48.296C102.42 48.232 102.492 48.2 102.572 48.2H105.38C105.46 48.2 105.524 48.232 105.572 48.296C105.636 48.344 105.668 48.408 105.668 48.488V64.712C105.668 64.792 105.636 64.864 105.572 64.928C105.524 64.976 105.46 65 105.38 65H102.668C102.508 65 102.396 64.936 102.332 64.808L96.1159 54.536C96.0839 54.488 96.0519 54.472 96.0199 54.488C95.9879 54.488 95.9719 54.52 95.9719 54.584L96.0199 64.712C96.0199 64.792 95.9879 64.864 95.9239 64.928C95.8759 64.976 95.8119 65 95.7319 65H92.9239C92.8439 65 92.7719 64.976 92.7079 64.928C92.6599 64.864 92.6359 64.792 92.6359 64.712V48.488C92.6359 48.408 92.6599 48.344 92.7079 48.296C92.7719 48.232 92.8439 48.2 92.9239 48.2H95.6359C95.7959 48.2 95.9079 48.264 95.9719 48.392L102.164 58.616C102.196 58.664 102.228 58.688 102.26 58.688C102.292 58.672 102.308 58.632 102.308 58.568L102.284 48.488ZM120.189 48.2C120.269 48.2 120.333 48.232 120.381 48.296C120.445 48.344 120.477 48.408 120.477 48.488V50.84C120.477 50.92 120.445 50.992 120.381 51.056C120.333 51.104 120.269 51.128 120.189 51.128H115.893C115.813 51.128 115.773 51.168 115.773 51.248V64.712C115.773 64.792 115.741 64.864 115.677 64.928C115.629 64.976 115.565 65 115.485 65H112.677C112.597 65 112.525 64.976 112.461 64.928C112.413 64.864 112.389 64.792 112.389 64.712V51.248C112.389 51.168 112.349 51.128 112.269 51.128H108.093C108.013 51.128 107.941 51.104 107.877 51.056C107.829 50.992 107.805 50.92 107.805 50.84V48.488C107.805 48.408 107.829 48.344 107.877 48.296C107.941 48.232 108.013 48.2 108.093 48.2H120.189ZM127.932 65.264C126.684 65.264 125.58 65.008 124.62 64.496C123.676 63.984 122.94 63.272 122.412 62.36C121.884 61.432 121.62 60.368 121.62 59.168V54.032C121.62 52.848 121.884 51.8 122.412 50.888C122.94 49.976 123.676 49.272 124.62 48.776C125.58 48.264 126.684 48.008 127.932 48.008C129.196 48.008 130.3 48.264 131.244 48.776C132.204 49.272 132.948 49.976 133.476 50.888C134.004 51.8 134.268 52.848 134.268 54.032V59.168C134.268 60.368 134.004 61.432 133.476 62.36C132.948 63.288 132.204 64.008 131.244 64.52C130.3 65.016 129.196 65.264 127.932 65.264ZM127.932 62.36C128.812 62.36 129.524 62.08 130.068 61.52C130.612 60.96 130.884 60.216 130.884 59.288V54.008C130.884 53.08 130.612 52.336 130.068 51.776C129.54 51.2 128.828 50.912 127.932 50.912C127.052 50.912 126.34 51.2 125.796 51.776C125.268 52.336 125.004 53.08 125.004 54.008V59.288C125.004 60.216 125.268 60.96 125.796 61.52C126.34 62.08 127.052 62.36 127.932 62.36ZM146.078 65C145.918 65 145.806 64.928 145.742 64.784L142.742 58.136C142.71 58.072 142.662 58.04 142.598 58.04H140.366C140.286 58.04 140.246 58.08 140.246 58.16V64.712C140.246 64.792 140.214 64.864 140.15 64.928C140.102 64.976 140.038 65 139.958 65H137.15C137.07 65 136.998 64.976 136.934 64.928C136.886 64.864 136.862 64.792 136.862 64.712V48.488C136.862 48.408 136.886 48.344 136.934 48.296C136.998 48.232 137.07 48.2 137.15 48.2H144.014C145.038 48.2 145.934 48.408 146.702 48.824C147.486 49.24 148.086 49.832 148.502 50.6C148.934 51.368 149.15 52.256 149.15 53.264C149.15 54.352 148.878 55.288 148.334 56.072C147.79 56.84 147.03 57.384 146.054 57.704C145.974 57.736 145.95 57.792 145.982 57.872L149.246 64.664C149.278 64.728 149.294 64.776 149.294 64.808C149.294 64.936 149.206 65 149.03 65H146.078ZM140.366 51.104C140.286 51.104 140.246 51.144 140.246 51.224V55.328C140.246 55.408 140.286 55.448 140.366 55.448H143.51C144.182 55.448 144.726 55.248 145.142 54.848C145.574 54.448 145.79 53.928 145.79 53.288C145.79 52.648 145.574 52.128 145.142 51.728C144.726 51.312 144.182 51.104 143.51 51.104H140.366ZM160.533 48.488C160.533 48.408 160.557 48.344 160.605 48.296C160.669 48.232 160.741 48.2 160.821 48.2H163.629C163.709 48.2 163.773 48.232 163.821 48.296C163.885 48.344 163.917 48.408 163.917 48.488V64.712C163.917 64.792 163.885 64.864 163.821 64.928C163.773 64.976 163.709 65 163.629 65H160.821C160.741 65 160.669 64.976 160.605 64.928C160.557 64.864 160.533 64.792 160.533 64.712V58.088C160.533 58.008 160.493 57.968 160.413 57.968H155.109C155.029 57.968 154.989 58.008 154.989 58.088V64.712C154.989 64.792 154.957 64.864 154.893 64.928C154.845 64.976 154.781 65 154.701 65H151.893C151.813 65 151.741 64.976 151.677 64.928C151.629 64.864 151.605 64.792 151.605 64.712V48.488C151.605 48.408 151.629 48.344 151.677 48.296C151.741 48.232 151.813 48.2 151.893 48.2H154.701C154.781 48.2 154.845 48.232 154.893 48.296C154.957 48.344 154.989 48.408 154.989 48.488V54.944C154.989 55.024 155.029 55.064 155.109 55.064H160.413C160.493 55.064 160.533 55.024 160.533 54.944V48.488ZM166.963 65C166.883 65 166.811 64.976 166.747 64.928C166.699 64.864 166.675 64.792 166.675 64.712V48.488C166.675 48.408 166.699 48.344 166.747 48.296C166.811 48.232 166.883 48.2 166.963 48.2H169.771C169.851 48.2 169.915 48.232 169.963 48.296C170.027 48.344 170.059 48.408 170.059 48.488V64.712C170.059 64.792 170.027 64.864 169.963 64.928C169.915 64.976 169.851 65 169.771 65H166.963ZM179.916 48.176C180.972 48.176 181.9 48.392 182.7 48.824C183.5 49.256 184.116 49.872 184.548 50.672C184.996 51.456 185.22 52.36 185.22 53.384C185.22 54.392 184.988 55.28 184.524 56.048C184.076 56.816 183.436 57.416 182.604 57.848C181.788 58.264 180.844 58.472 179.772 58.472H176.364C176.284 58.472 176.244 58.512 176.244 58.592V64.712C176.244 64.792 176.212 64.864 176.148 64.928C176.1 64.976 176.036 65 175.956 65H173.148C173.068 65 172.996 64.976 172.932 64.928C172.884 64.864 172.86 64.792 172.86 64.712V48.464C172.86 48.384 172.884 48.32 172.932 48.272C172.996 48.208 173.068 48.176 173.148 48.176H179.916ZM179.412 55.76C180.148 55.76 180.74 55.552 181.188 55.136C181.636 54.704 181.86 54.144 181.86 53.456C181.86 52.752 181.636 52.184 181.188 51.752C180.74 51.32 180.148 51.104 179.412 51.104H176.364C176.284 51.104 176.244 51.144 176.244 51.224V55.64C176.244 55.72 176.284 55.76 176.364 55.76H179.412Z" fill="white"/>
<defs>
<clipPath id="clip0_17_99">
<rect width="40" height="40" fill="white" transform="translate(0 15)"/>
</clipPath>
</defs>
</svg>
