<svg width="172" height="70" viewBox="0 0 172 70" fill="none" xmlns="http://www.w3.org/2000/svg">
<path d="M28.3333 26.6667H11.6667V28.3333H28.3333V26.6667ZM28.3333 30H11.6667V31.6667H28.3333V30ZM21.6667 33.3333H11.6667V35H21.6667V33.3333ZM36.7367 41.0633C36.8367 41.4883 36.275 41.7533 36.085 41.3033C35.8583 40.7533 35.4917 38.4133 35.1733 36.06C35.0017 34.8 33.3283 34.955 33.3333 36.2567C33.3383 38.2817 33.3367 39.97 33.3333 42.9683C33.33 45.5267 34.495 45.5767 35.355 48.4467C35.5017 48.94 35.6283 49.4767 35.7317 50.0017L40 48.51C38.5117 45.5983 39.23 43.3 39.3783 41.4183C39.5817 38.8467 38.8983 38.5967 35.725 35.505C35.915 36.865 36.3117 39.28 36.7367 41.0633V41.0633ZM4.275 35.5067C1.10167 38.5967 0.418333 38.8483 0.621667 41.42C0.77 43.3 1.48833 45.5983 0 48.51L4.27 50C4.37333 49.4767 4.5 48.9383 4.64667 48.445C5.505 45.5767 6.67 45.525 6.66667 42.9667C6.66333 39.9667 6.66167 38.28 6.66667 36.255C6.67167 34.9533 4.99667 34.7983 4.82667 36.0583C4.51 38.4117 4.14167 40.7517 3.915 41.3017C3.72667 41.7533 3.165 41.4867 3.26333 41.0617C3.68833 39.28 4.085 36.865 4.275 35.5067V35.5067ZM8.33333 43.3333L8.34 40H31.66L31.6667 43.3333H8.33333V43.3333ZM5 33.635V22.5C5 21.12 6.12 20 7.5 20H32.5C33.88 20 35 21.12 35 22.5V33.635C34.77 33.5683 34.53 33.5267 34.2733 33.5267C33.59 33.525 32.92 33.8033 32.4367 34.2883C31.955 34.7717 31.6883 35.4317 31.665 36.1517V23.3333H8.33333V36.1483C8.31 35.4283 8.04333 34.77 7.56167 34.2867C7.07833 33.8017 6.41 33.525 5.725 33.525C5.47167 33.525 5.23167 33.5683 5 33.635V33.635Z" fill="white"/>
<path d="M68.388 29.428C68.34 29.476 68.328 29.524 68.352 29.572C68.376 29.62 68.424 29.644 68.496 29.644H78.252C78.372 29.644 78.468 29.692 78.54 29.788C78.636 29.86 78.684 29.956 78.684 30.076V33.568C78.684 33.688 78.636 33.796 78.54 33.892C78.468 33.964 78.372 34 78.252 34H62.052C61.932 34 61.824 33.964 61.728 33.892C61.656 33.796 61.62 33.688 61.62 33.568V30.256C61.62 30.04 61.692 29.86 61.836 29.716C63.012 28.564 64.212 27.316 65.436 25.972C66.66 24.604 67.428 23.752 67.74 23.416C68.412 22.624 69.096 21.868 69.792 21.148C71.976 18.724 73.068 16.924 73.068 15.748C73.068 14.908 72.768 14.224 72.168 13.696C71.568 13.144 70.788 12.868 69.828 12.868C68.868 12.868 68.088 13.144 67.488 13.696C66.888 14.224 66.588 14.932 66.588 15.82V16.72C66.588 16.84 66.54 16.948 66.444 17.044C66.372 17.116 66.276 17.152 66.156 17.152H61.908C61.788 17.152 61.68 17.116 61.584 17.044C61.512 16.948 61.476 16.84 61.476 16.72V15.028C61.548 13.732 61.956 12.592 62.7 11.608C63.444 10.6 64.428 9.832 65.652 9.304C66.9 8.776 68.292 8.512 69.828 8.512C71.532 8.512 73.008 8.836 74.256 9.484C75.528 10.108 76.5 10.96 77.172 12.04C77.868 13.12 78.216 14.32 78.216 15.64C78.216 16.648 77.964 17.68 77.46 18.736C76.956 19.792 76.2 20.932 75.192 22.156C74.448 23.092 73.644 24.016 72.78 24.928C71.916 25.84 70.632 27.16 68.928 28.888L68.388 29.428ZM107.008 12.724C107.008 12.844 106.96 12.952 106.864 13.048C106.792 13.12 106.696 13.156 106.576 13.156H94.8036C94.6836 13.156 94.6236 13.216 94.6236 13.336V18.916C94.6236 19.036 94.6836 19.096 94.8036 19.096H102.544C102.664 19.096 102.76 19.144 102.832 19.24C102.928 19.312 102.976 19.408 102.976 19.528V23.02C102.976 23.14 102.928 23.248 102.832 23.344C102.76 23.416 102.664 23.452 102.544 23.452H94.8036C94.6836 23.452 94.6236 23.512 94.6236 23.632V33.568C94.6236 33.688 94.5756 33.796 94.4796 33.892C94.4076 33.964 94.3116 34 94.1916 34H89.9796C89.8596 34 89.7516 33.964 89.6556 33.892C89.5836 33.796 89.5476 33.688 89.5476 33.568V9.232C89.5476 9.112 89.5836 9.016 89.6556 8.944C89.7516 8.848 89.8596 8.8 89.9796 8.8H106.576C106.696 8.8 106.792 8.848 106.864 8.944C106.96 9.016 107.008 9.112 107.008 9.232V12.724ZM123.516 34C123.276 34 123.108 33.892 123.012 33.676L118.512 23.704C118.464 23.608 118.392 23.56 118.296 23.56H114.948C114.828 23.56 114.768 23.62 114.768 23.74V33.568C114.768 33.688 114.72 33.796 114.624 33.892C114.552 33.964 114.456 34 114.336 34H110.124C110.004 34 109.896 33.964 109.8 33.892C109.728 33.796 109.692 33.688 109.692 33.568V9.232C109.692 9.112 109.728 9.016 109.8 8.944C109.896 8.848 110.004 8.8 110.124 8.8H120.42C121.956 8.8 123.3 9.112 124.452 9.736C125.628 10.36 126.528 11.248 127.152 12.4C127.8 13.552 128.124 14.884 128.124 16.396C128.124 18.028 127.716 19.432 126.9 20.608C126.084 21.76 124.944 22.576 123.48 23.056C123.36 23.104 123.324 23.188 123.372 23.308L128.268 33.496C128.316 33.592 128.34 33.664 128.34 33.712C128.34 33.904 128.208 34 127.944 34H123.516ZM114.948 13.156C114.828 13.156 114.768 13.216 114.768 13.336V19.492C114.768 19.612 114.828 19.672 114.948 19.672H119.664C120.672 19.672 121.488 19.372 122.112 18.772C122.76 18.172 123.084 17.392 123.084 16.432C123.084 15.472 122.76 14.692 122.112 14.092C121.488 13.468 120.672 13.156 119.664 13.156H114.948ZM149.301 12.724C149.301 12.844 149.253 12.952 149.157 13.048C149.085 13.12 148.989 13.156 148.869 13.156H137.061C136.941 13.156 136.881 13.216 136.881 13.336V18.916C136.881 19.036 136.941 19.096 137.061 19.096H144.801C144.921 19.096 145.017 19.144 145.089 19.24C145.185 19.312 145.233 19.408 145.233 19.528V23.02C145.233 23.14 145.185 23.248 145.089 23.344C145.017 23.416 144.921 23.452 144.801 23.452H137.061C136.941 23.452 136.881 23.512 136.881 23.632V29.464C136.881 29.584 136.941 29.644 137.061 29.644H148.869C148.989 29.644 149.085 29.692 149.157 29.788C149.253 29.86 149.301 29.956 149.301 30.076V33.568C149.301 33.688 149.253 33.796 149.157 33.892C149.085 33.964 148.989 34 148.869 34H132.237C132.117 34 132.009 33.964 131.913 33.892C131.841 33.796 131.805 33.688 131.805 33.568V9.232C131.805 9.112 131.841 9.016 131.913 8.944C132.009 8.848 132.117 8.8 132.237 8.8H148.869C148.989 8.8 149.085 8.848 149.157 8.944C149.253 9.016 149.301 9.112 149.301 9.232V12.724ZM170.325 12.724C170.325 12.844 170.277 12.952 170.181 13.048C170.109 13.12 170.013 13.156 169.893 13.156H158.085C157.965 13.156 157.905 13.216 157.905 13.336V18.916C157.905 19.036 157.965 19.096 158.085 19.096H165.825C165.945 19.096 166.041 19.144 166.113 19.24C166.209 19.312 166.257 19.408 166.257 19.528V23.02C166.257 23.14 166.209 23.248 166.113 23.344C166.041 23.416 165.945 23.452 165.825 23.452H158.085C157.965 23.452 157.905 23.512 157.905 23.632V29.464C157.905 29.584 157.965 29.644 158.085 29.644H169.893C170.013 29.644 170.109 29.692 170.181 29.788C170.277 29.86 170.325 29.956 170.325 30.076V33.568C170.325 33.688 170.277 33.796 170.181 33.892C170.109 33.964 170.013 34 169.893 34H153.261C153.141 34 153.033 33.964 152.937 33.892C152.865 33.796 152.829 33.688 152.829 33.568V9.232C152.829 9.112 152.865 9.016 152.937 8.944C153.033 8.848 153.141 8.8 153.261 8.8H169.893C170.013 8.8 170.109 8.848 170.181 8.944C170.277 9.016 170.325 9.112 170.325 9.232V12.724Z" fill="white"/>
<path d="M73.128 50.816C73.128 50.896 73.096 50.968 73.032 51.032C72.984 51.08 72.92 51.104 72.84 51.104H64.968C64.888 51.104 64.848 51.144 64.848 51.224V54.944C64.848 55.024 64.888 55.064 64.968 55.064H70.128C70.208 55.064 70.272 55.096 70.32 55.16C70.384 55.208 70.416 55.272 70.416 55.352V57.68C70.416 57.76 70.384 57.832 70.32 57.896C70.272 57.944 70.208 57.968 70.128 57.968H64.968C64.888 57.968 64.848 58.008 64.848 58.088V61.976C64.848 62.056 64.888 62.096 64.968 62.096H72.84C72.92 62.096 72.984 62.128 73.032 62.192C73.096 62.24 73.128 62.304 73.128 62.384V64.712C73.128 64.792 73.096 64.864 73.032 64.928C72.984 64.976 72.92 65 72.84 65H61.752C61.672 65 61.6 64.976 61.536 64.928C61.488 64.864 61.464 64.792 61.464 64.712V48.488C61.464 48.408 61.488 48.344 61.536 48.296C61.6 48.232 61.672 48.2 61.752 48.2H72.84C72.92 48.2 72.984 48.232 73.032 48.296C73.096 48.344 73.128 48.408 73.128 48.488V50.816ZM74.9996 59.36C74.9196 59.36 74.8476 59.336 74.7836 59.288C74.7356 59.224 74.7116 59.152 74.7116 59.072V56.744C74.7116 56.664 74.7356 56.6 74.7836 56.552C74.8476 56.488 74.9196 56.456 74.9996 56.456H82.8476C82.9276 56.456 82.9916 56.488 83.0396 56.552C83.1036 56.6 83.1356 56.664 83.1356 56.744V59.072C83.1356 59.152 83.1036 59.224 83.0396 59.288C82.9916 59.336 82.9276 59.36 82.8476 59.36H74.9996ZM95.2599 56.24C95.1639 56.288 95.1639 56.336 95.2599 56.384C96.7799 57.168 97.5399 58.472 97.5399 60.296C97.5399 61.848 97.0119 63.024 95.9559 63.824C94.8999 64.608 93.5159 65 91.8039 65H85.5879C85.5079 65 85.4359 64.976 85.3719 64.928C85.3239 64.864 85.2999 64.792 85.2999 64.712V48.488C85.2999 48.408 85.3239 48.344 85.3719 48.296C85.4359 48.232 85.5079 48.2 85.5879 48.2H91.6119C95.4039 48.2 97.2999 49.736 97.2999 52.808C97.2999 54.408 96.6199 55.552 95.2599 56.24ZM88.8039 51.104C88.7239 51.104 88.6839 51.144 88.6839 51.224V54.968C88.6839 55.048 88.7239 55.088 88.8039 55.088H91.6119C92.3639 55.088 92.9479 54.912 93.3639 54.56C93.7799 54.208 93.9879 53.728 93.9879 53.12C93.9879 52.496 93.7799 52.008 93.3639 51.656C92.9479 51.288 92.3639 51.104 91.6119 51.104H88.8039ZM91.8039 62.072C92.5399 62.072 93.1159 61.888 93.5319 61.52C93.9479 61.136 94.1559 60.616 94.1559 59.96C94.1559 59.304 93.9479 58.792 93.5319 58.424C93.1159 58.04 92.5319 57.848 91.7799 57.848H88.8039C88.7239 57.848 88.6839 57.888 88.6839 57.968V61.952C88.6839 62.032 88.7239 62.072 88.8039 62.072H91.8039ZM106.135 65.264C104.887 65.264 103.783 65.008 102.823 64.496C101.879 63.984 101.143 63.272 100.615 62.36C100.087 61.432 99.8233 60.368 99.8233 59.168V54.032C99.8233 52.848 100.087 51.8 100.615 50.888C101.143 49.976 101.879 49.272 102.823 48.776C103.783 48.264 104.887 48.008 106.135 48.008C107.399 48.008 108.503 48.264 109.447 48.776C110.407 49.272 111.151 49.976 111.679 50.888C112.207 51.8 112.471 52.848 112.471 54.032V59.168C112.471 60.368 112.207 61.432 111.679 62.36C111.151 63.288 110.407 64.008 109.447 64.52C108.503 65.016 107.399 65.264 106.135 65.264ZM106.135 62.36C107.015 62.36 107.727 62.08 108.271 61.52C108.815 60.96 109.087 60.216 109.087 59.288V54.008C109.087 53.08 108.815 52.336 108.271 51.776C107.743 51.2 107.031 50.912 106.135 50.912C105.255 50.912 104.543 51.2 103.999 51.776C103.471 52.336 103.207 53.08 103.207 54.008V59.288C103.207 60.216 103.471 60.96 103.999 61.52C104.543 62.08 105.255 62.36 106.135 62.36ZM121.042 65.264C119.794 65.264 118.69 65.008 117.73 64.496C116.786 63.984 116.05 63.272 115.522 62.36C114.994 61.432 114.73 60.368 114.73 59.168V54.032C114.73 52.848 114.994 51.8 115.522 50.888C116.05 49.976 116.786 49.272 117.73 48.776C118.69 48.264 119.794 48.008 121.042 48.008C122.306 48.008 123.41 48.264 124.354 48.776C125.314 49.272 126.058 49.976 126.586 50.888C127.114 51.8 127.378 52.848 127.378 54.032V59.168C127.378 60.368 127.114 61.432 126.586 62.36C126.058 63.288 125.314 64.008 124.354 64.52C123.41 65.016 122.306 65.264 121.042 65.264ZM121.042 62.36C121.922 62.36 122.634 62.08 123.178 61.52C123.722 60.96 123.994 60.216 123.994 59.288V54.008C123.994 53.08 123.722 52.336 123.178 51.776C122.65 51.2 121.938 50.912 121.042 50.912C120.162 50.912 119.45 51.2 118.906 51.776C118.378 52.336 118.114 53.08 118.114 54.008V59.288C118.114 60.216 118.378 60.96 118.906 61.52C119.45 62.08 120.162 62.36 121.042 62.36ZM130.26 65C130.18 65 130.108 64.976 130.044 64.928C129.996 64.864 129.972 64.792 129.972 64.712V48.488C129.972 48.408 129.996 48.344 130.044 48.296C130.108 48.232 130.18 48.2 130.26 48.2H133.068C133.148 48.2 133.212 48.232 133.26 48.296C133.324 48.344 133.356 48.408 133.356 48.488V55.208C133.356 55.256 133.372 55.288 133.404 55.304C133.436 55.304 133.468 55.288 133.5 55.256L139.044 48.368C139.14 48.256 139.26 48.2 139.404 48.2H142.572C142.7 48.2 142.78 48.24 142.812 48.32C142.844 48.384 142.828 48.464 142.764 48.56L137.412 55.4C137.364 55.464 137.356 55.52 137.388 55.568L143.052 64.664C143.084 64.76 143.1 64.816 143.1 64.832C143.1 64.944 143.02 65 142.86 65H139.692C139.532 65 139.42 64.936 139.356 64.808L135.084 57.896C135.068 57.864 135.044 57.848 135.012 57.848C134.98 57.848 134.948 57.864 134.916 57.896L133.404 59.792C133.372 59.856 133.356 59.904 133.356 59.936V64.712C133.356 64.792 133.324 64.864 133.26 64.928C133.212 64.976 133.148 65 133.068 65H130.26ZM150.216 65.192C148.936 65.192 147.816 64.992 146.856 64.592C145.896 64.176 145.152 63.592 144.624 62.84C144.112 62.072 143.856 61.184 143.856 60.176V59.648C143.856 59.568 143.88 59.504 143.928 59.456C143.992 59.392 144.064 59.36 144.144 59.36H146.88C146.96 59.36 147.024 59.392 147.072 59.456C147.136 59.504 147.168 59.568 147.168 59.648V60.008C147.168 60.648 147.464 61.192 148.056 61.64C148.648 62.072 149.448 62.288 150.456 62.288C151.304 62.288 151.936 62.112 152.352 61.76C152.768 61.392 152.976 60.944 152.976 60.416C152.976 60.032 152.848 59.712 152.592 59.456C152.336 59.184 151.984 58.952 151.536 58.76C151.104 58.552 150.408 58.272 149.448 57.92C148.376 57.552 147.464 57.176 146.712 56.792C145.976 56.408 145.352 55.888 144.84 55.232C144.344 54.56 144.096 53.736 144.096 52.76C144.096 51.8 144.344 50.96 144.84 50.24C145.336 49.52 146.024 48.968 146.904 48.584C147.784 48.2 148.8 48.008 149.952 48.008C151.168 48.008 152.248 48.224 153.192 48.656C154.152 49.088 154.896 49.696 155.424 50.48C155.968 51.248 156.24 52.144 156.24 53.168V53.528C156.24 53.608 156.208 53.68 156.144 53.744C156.096 53.792 156.032 53.816 155.952 53.816H153.192C153.112 53.816 153.04 53.792 152.976 53.744C152.928 53.68 152.904 53.608 152.904 53.528V53.336C152.904 52.664 152.624 52.096 152.064 51.632C151.52 51.152 150.768 50.912 149.808 50.912C149.056 50.912 148.464 51.072 148.032 51.392C147.616 51.712 147.408 52.152 147.408 52.712C147.408 53.112 147.528 53.448 147.768 53.72C148.024 53.992 148.392 54.24 148.872 54.464C149.368 54.672 150.128 54.96 151.152 55.328C152.288 55.744 153.176 56.112 153.816 56.432C154.472 56.752 155.056 57.232 155.568 57.872C156.096 58.496 156.36 59.312 156.36 60.32C156.36 61.824 155.808 63.016 154.704 63.896C153.6 64.76 152.104 65.192 150.216 65.192Z" fill="white"/>
</svg>
